{
    "asset" : {
        "generator" : "Khronos glTF Blender I/O v1.6.16",
        "version" : "2.0"
    },
    "scene" : 0,
    "scenes" : [
        {
            "name" : "Scene",
            "nodes" : [
                0,
                1
            ]
        }
    ],
    "nodes" : [
        {
            "mesh" : 0,
            "name" : "Curve.002",
            "scale" : [
                10,
                10,
                10
            ],
            "translation" : [
                0.23613768815994263,
                0.21425455808639526,
                0.49630558490753174
            ]
        },
        {
            "mesh" : 1,
            "name" : "Curve.003",
            "scale" : [
                10,
                10,
                10
            ],
            "translation" : [
                0.25398004055023193,
                0.21425455808639526,
                0.13814741373062134
            ]
        }
    ],
    "materials" : [
        {
            "doubleSided" : true,
            "name" : "Material.001",
            "pbrMetallicRoughness" : {
                "baseColorFactor" : [
                    0.8000000715255737,
                    0.39674338698387146,
                    0.06953227519989014,
                    1
                ],
                "metallicFactor" : 0,
                "roughnessFactor" : 0.4000000059604645
            }
        }
    ],
    "meshes" : [
        {
            "name" : "Curve.002",
            "primitives" : [
                {
                    "attributes" : {
                        "POSITION" : 0,
                        "NORMAL" : 1,
                        "TEXCOORD_0" : 2
                    },
                    "indices" : 3,
                    "material" : 0
                }
            ]
        },
        {
            "name" : "Curve.003",
            "primitives" : [
                {
                    "attributes" : {
                        "POSITION" : 4,
                        "NORMAL" : 5,
                        "TEXCOORD_0" : 6
                    },
                    "indices" : 7,
                    "material" : 0
                }
            ]
        }
    ],
    "accessors" : [
        {
            "bufferView" : 0,
            "componentType" : 5126,
            "count" : 28,
            "max" : [
                0.022231630980968475,
                0.021457048133015633,
                0.01525237038731575
            ],
            "min" : [
                -0.022231630980968475,
                -0.02145720273256302,
                -0.01525237038731575
            ],
            "type" : "VEC3"
        },
        {
            "bufferView" : 1,
            "componentType" : 5126,
            "count" : 28,
            "type" : "VEC3"
        },
        {
            "bufferView" : 2,
            "componentType" : 5126,
            "count" : 28,
            "type" : "VEC2"
        },
        {
            "bufferView" : 3,
            "componentType" : 5123,
            "count" : 36,
            "type" : "SCALAR"
        },
        {
            "bufferView" : 4,
            "componentType" : 5126,
            "count" : 28,
            "max" : [
                0.018778569996356964,
                0.021457048133015633,
                0.008262146264314651
            ],
            "min" : [
                -0.018778573721647263,
                -0.02145720273256302,
                -0.008262131363153458
            ],
            "type" : "VEC3"
        },
        {
            "bufferView" : 5,
            "componentType" : 5126,
            "count" : 28,
            "type" : "VEC3"
        },
        {
            "bufferView" : 6,
            "componentType" : 5126,
            "count" : 28,
            "type" : "VEC2"
        },
        {
            "bufferView" : 7,
            "componentType" : 5123,
            "count" : 36,
            "type" : "SCALAR"
        }
    ],
    "bufferViews" : [
        {
            "buffer" : 0,
            "byteLength" : 336,
            "byteOffset" : 0
        },
        {
            "buffer" : 0,
            "byteLength" : 336,
            "byteOffset" : 336
        },
        {
            "buffer" : 0,
            "byteLength" : 224,
            "byteOffset" : 672
        },
        {
            "buffer" : 0,
            "byteLength" : 72,
            "byteOffset" : 896
        },
        {
            "buffer" : 0,
            "byteLength" : 336,
            "byteOffset" : 968
        },
        {
            "buffer" : 0,
            "byteLength" : 336,
            "byteOffset" : 1304
        },
        {
            "buffer" : 0,
            "byteLength" : 224,
            "byteOffset" : 1640
        },
        {
            "buffer" : 0,
            "byteLength" : 72,
            "byteOffset" : 1864
        }
    ],
    "buffers" : [
        {
            "byteLength" : 1936,
            "uri" : "I.bin"
        }
    ]
}
