{
    "asset" : {
        "generator" : "Khronos glTF Blender I/O v1.6.16",
        "version" : "2.0"
    },
    "scene" : 0,
    "scenes" : [
        {
            "name" : "Scene",
            "nodes" : [
                0,
                1
            ]
        }
    ],
    "nodes" : [
        {
            "mesh" : 0,
            "name" : "Curve",
            "scale" : [
                10,
                10,
                10
            ],
            "translation" : [
                -0.17124879360198975,
                0.20152363181114197,
                -0.45202308893203735
            ]
        },
        {
            "mesh" : 1,
            "name" : "Curve.001",
            "scale" : [
                10,
                10,
                10
            ],
            "translation" : [
                0.2679052948951721,
                0.19788643717765808,
                -0.30577582120895386
            ]
        }
    ],
    "materials" : [
        {
            "doubleSided" : true,
            "name" : "Material",
            "pbrMetallicRoughness" : {
                "baseColorFactor" : [
                    0.11002317816019058,
                    0.8000000715255737,
                    0.10328324139118195,
                    1
                ],
                "metallicFactor" : 0,
                "roughnessFactor" : 0.4000000059604645
            }
        }
    ],
    "meshes" : [
        {
            "name" : "Curve",
            "primitives" : [
                {
                    "attributes" : {
                        "POSITION" : 0,
                        "NORMAL" : 1,
                        "TEXCOORD_0" : 2
                    },
                    "indices" : 3,
                    "material" : 0
                }
            ]
        },
        {
            "name" : "Curve.001",
            "primitives" : [
                {
                    "attributes" : {
                        "POSITION" : 4,
                        "NORMAL" : 5,
                        "TEXCOORD_0" : 6
                    },
                    "indices" : 7,
                    "material" : 0
                }
            ]
        }
    ],
    "accessors" : [
        {
            "bufferView" : 0,
            "componentType" : 5126,
            "count" : 44,
            "max" : [
                0.01667245291173458,
                0.022730141878128052,
                0.021971166133880615
            ],
            "min" : [
                -0.018239149823784828,
                -0.02018411085009575,
                -0.015526190400123596
            ],
            "type" : "VEC3"
        },
        {
            "bufferView" : 1,
            "componentType" : 5126,
            "count" : 44,
            "type" : "VEC3"
        },
        {
            "bufferView" : 2,
            "componentType" : 5126,
            "count" : 44,
            "type" : "VEC2"
        },
        {
            "bufferView" : 3,
            "componentType" : 5123,
            "count" : 84,
            "type" : "SCALAR"
        },
        {
            "bufferView" : 4,
            "componentType" : 5126,
            "count" : 42,
            "max" : [
                0.01633022353053093,
                0.02309386059641838,
                0.020571663975715637
            ],
            "min" : [
                -0.018649112433195114,
                -0.01982039213180542,
                -0.015153668820858002
            ],
            "type" : "VEC3"
        },
        {
            "bufferView" : 5,
            "componentType" : 5126,
            "count" : 42,
            "type" : "VEC3"
        },
        {
            "bufferView" : 6,
            "componentType" : 5126,
            "count" : 42,
            "type" : "VEC2"
        },
        {
            "bufferView" : 7,
            "componentType" : 5123,
            "count" : 60,
            "type" : "SCALAR"
        }
    ],
    "bufferViews" : [
        {
            "buffer" : 0,
            "byteLength" : 528,
            "byteOffset" : 0
        },
        {
            "buffer" : 0,
            "byteLength" : 528,
            "byteOffset" : 528
        },
        {
            "buffer" : 0,
            "byteLength" : 352,
            "byteOffset" : 1056
        },
        {
            "buffer" : 0,
            "byteLength" : 168,
            "byteOffset" : 1408
        },
        {
            "buffer" : 0,
            "byteLength" : 504,
            "byteOffset" : 1576
        },
        {
            "buffer" : 0,
            "byteLength" : 504,
            "byteOffset" : 2080
        },
        {
            "buffer" : 0,
            "byteLength" : 336,
            "byteOffset" : 2584
        },
        {
            "buffer" : 0,
            "byteLength" : 120,
            "byteOffset" : 2920
        }
    ],
    "buffers" : [
        {
            "byteLength" : 3040,
            "uri" : "L.bin"
        }
    ]
}
