<?xml version="1.0" encoding="UTF-8"?>
<svg width="60px" height="60px" viewBox="0 0 60 60" version="1.1" xmlns="http://www.w3.org/2000/svg" xmlns:xlink="http://www.w3.org/1999/xlink">
    <title>logo-dark</title>
    <g id="Page-2" stroke="none" stroke-width="1" fill="none" fill-rule="evenodd">
        <g id="Header-A" transform="translate(-6.000000, -7.000000)" fill="#000000">
            <g id="Group" transform="translate(0.000000, 1.000000)">
                <path d="M9.1664918,60.5454545 L9.1664918,61.0213681 L11.2286614,61.0213681 L11.2286614,62.3963647 L10.6826719,62.3963647 L10.6826719,62.6422331 L11.127857,63.2293149 C11.127857,63.2293149 10.6546936,63.5721511 10.420992,63.7198345 C10.7427431,64.3308539 11.0813635,64.9455249 11.4545455,65.3995294 L10.7118846,65.8689513 C10.3090786,65.3455681 9.98321299,64.6862676 9.73552223,64.0752482 L9.57300088,64.1551757 L9.57300088,64.1551757 C9.59233887,64.3231452 9.60221358,64.5065321 9.60221358,64.7049309 C9.60221358,65.0753564 9.55942315,65.3467853 9.47425374,65.5184063 C9.38908433,65.6944903 9.2648275,65.8186416 9.10230616,65.8908604 C8.9360818,65.9634849 8.69373984,66 8.37610319,66 L7.75440762,66 L7.64990022,65.3009386 C7.23145919,65.5111033 6.7858627,65.6944903 6.31393363,65.8510995 L6,65.1232317 C7.02614742,64.8826377 7.91322595,64.5162695 8.66082413,64.0237213 C8.64560061,63.9393308 8.62790841,63.8610262 8.60857043,63.7884017 C7.93832418,64.2278002 7.1792055,64.5641449 6.33121438,64.7966244 L6.08105495,64.1381353 C6.96031599,63.9661086 7.72930939,63.6833194 8.38803514,63.2901734 C8.35306219,63.2366179 8.31603201,63.1830624 8.27735605,63.1299126 C7.68075871,63.4581429 7.04754264,63.6946796 6.37770783,63.8403343 L6.1275484,63.20416 C6.75500422,63.108815 7.34008105,62.9404398 7.88236746,62.6998458 L6.67970952,62.6998458 L6.67970952,62.3850045 L6.19749429,62.3850045 L6.19749429,61.0213681 L8.2016499,61.0213681 L8.2016499,60.5454545 L9.1664918,60.5454545 Z M35.2240983,62.1959241 L35.2240983,63.0061918 L36.3541678,63.0061918 L36.3541678,63.8689466 L35.2240983,63.8689466 L35.2240983,65.1138721 L36.5454545,65.1138721 L36.5454545,66 L33.0444146,66 L33.0444146,65.1138721 L34.284905,65.1138721 L34.284905,63.8689466 L33.2123037,63.8689466 L33.2123037,63.0061918 L34.284905,63.0061918 L34.284905,62.1959241 L35.2240983,62.1959241 Z M33.9893547,60.5454545 C33.9544634,60.7152171 33.9138252,61.0026654 33.8674402,61.165047 L36.5397077,61.165047 L36.5397077,62.045024 L33.5312517,62.045024 C33.3498166,62.4235043 33.1293854,62.7843523 32.8703683,63.127978 L32.8703683,66 L31.9430792,66 L31.9430792,64.1240005 C31.8039243,64.2474269 31.6590225,64.3671628 31.5083739,64.4827982 L31.0909091,63.5794481 C31.6861146,63.1390495 32.1557112,62.6277115 32.499699,62.045024 L31.2821958,62.045024 L31.2821958,61.165047 L32.9052597,61.165047 C32.9631383,60.9952844 33.0136282,60.7271087 33.0563188,60.5454545 L33.9893547,60.5454545 Z M51.2052879,63.3161849 L51.2052879,66 L46.7979275,66 L46.7979275,63.3161849 L51.2052879,63.3161849 Z M62.7272727,60.5454545 L62.7272727,66 L60.5454545,66 L60.5454545,65.0632676 L61.8138235,65.0632676 L61.8138235,62.7921848 L60.5454545,62.7921848 L60.5454545,61.8554524 L61.8138235,61.8554524 L61.8138235,60.5454545 L62.7272727,60.5454545 Z M64.6305912,60.5454545 L64.6305912,62.0574104 C64.9318256,61.8361383 65.2390989,61.5926131 65.553832,61.3280943 L65.553832,61.3280943 L66,62.1048558 C65.515112,62.4806404 65.0586424,62.8161175 64.6305912,63.1125464 L64.6305912,63.1125464 L64.6305912,65.0632676 L65.2074835,65.0632676 L65.2074835,64.7105759 L66,64.7105759 L66,66 L63.8181818,66 L63.8181818,60.5454545 L64.6305912,60.5454545 Z M8.70731757,64.6704444 C8.42095085,64.8696546 8.11853772,65.0530416 7.80090107,65.2210111 L8.1555679,65.2210111 C8.26789278,65.2210111 8.38556646,65.210868 8.47443889,65.1922047 C8.55590529,65.1731357 8.61391923,65.1329691 8.64848073,65.0717048 C8.68345368,65.0071948 8.70731757,64.8826377 8.70731757,64.7049309 L8.70731757,64.6704444 Z M50.2537226,64.1532526 L47.75539,64.1532526 L47.75539,65.1568402 L50.2537226,65.1568402 L50.2537226,64.1532526 Z M22.3636364,62.7272727 L22.3636364,63.8181818 L21.2727273,63.8181818 L21.2727273,62.7272727 L22.3636364,62.7272727 Z M10.5489518,62.6998458 L8.99203851,62.6998458 C9.14674237,62.8832328 9.26894197,63.0743285 9.35822584,63.2727273 C9.37715238,63.3149225 9.39484458,63.356712 9.41047954,63.3989073 C9.77460964,63.2001028 10.1539633,62.9672175 10.5489518,62.6998458 Z M48.2553935,60.5454545 L49.2187533,60.8614364 C48.8143697,61.3427198 48.3838696,61.7809517 47.9280955,62.1745075 C48.6096504,62.1440466 49.337541,62.1176471 50.1109247,62.0944967 C49.912524,61.8341569 49.7006438,61.5705679 49.4744417,61.3029175 L50.2596199,60.8728085 C50.8544008,61.5421377 51.3737811,62.1976579 51.8181818,62.8401814 L50.9736098,63.3161849 C50.8897844,63.1821566 50.8025892,63.0485345 50.7120241,62.9141 C49.1888458,62.9453733 47.8046743,63.0022338 46.5599309,63.0863061 L46.3636364,62.2492385 C46.6412289,62.1615109 46.972318,61.9243214 47.3569037,61.5380762 C47.7414893,61.1481757 48.040986,60.8171665 48.2553935,60.5454545 Z M10.3633895,61.7545103 L7.0631776,61.7545103 L7.0631776,62.0352709 L10.3633895,62.0352709 L10.3633895,61.7545103 Z M14.7272727,38.7272727 L14.7272727,41.7819044 L11.8179081,41.7819044 L11.8179081,54 L8.90895407,54 L8.90895407,41.7819044 L6,41.7819044 L6,38.7272727 L14.7272727,38.7272727 Z M26.7272727,42 L26.7272727,54 L23.8184555,54 L23.8184555,50.9997883 L20.9092277,50.9997883 L20.9092277,54 L18,54 L18,42 L26.7272727,42 Z M47.4545455,38.7272727 L47.4545455,47.8907367 L38.4543338,47.8907367 L38.4543338,54 L35.4545455,54 L35.4545455,38.7272727 L47.4545455,38.7272727 Z M59.4545455,38.7272727 L59.4545455,47.8905643 L53.6365005,47.8905643 L53.6365005,50.9452821 L56.5457282,50.9452821 L56.5457282,54 L50.7272727,54 L50.7272727,38.7272727 L59.4545455,38.7272727 Z M33.2727273,47.4545455 L33.2727273,54 L30,54 L30,47.4545455 L33.2727273,47.4545455 Z M66,47.4545455 L66,54 L62.7272727,54 L62.7272727,47.4545455 L66,47.4545455 Z M23.8184555,44.999365 L20.9092277,44.999365 L20.9092277,47.9995767 L23.8184555,47.9995767 L23.8184555,44.999365 Z M33.2727273,42 L33.2727273,45.2727273 L30,45.2727273 L30,42 L33.2727273,42 Z M66,42 L66,45.2727273 L62.7272727,45.2727273 L62.7272727,42 L66,42 Z M44.4547571,41.7819044 L38.4543338,41.7819044 L38.4543338,44.836105 L44.4547571,44.836105 L44.4547571,41.7819044 Z M56.5457282,41.7819906 L53.6365005,41.7819906 L53.6365005,44.8362774 L56.5457282,44.8362774 L56.5457282,41.7819906 Z M66,21.2727273 L66,30.4364498 L60.1815445,30.4364498 L60.1815445,33.4907367 L63.0907723,33.4907367 L63.0907723,36.5454545 L57.2727273,36.5454545 L57.2727273,21.2727273 L66,21.2727273 Z M8.90922774,23.4545455 L8.90922774,29.4543338 L11.818045,29.4543338 L11.818045,23.4545455 L14.7272727,23.4545455 L14.7272727,35.4545455 L11.818045,35.4545455 L11.818045,32.4544396 L8.90922774,32.4544396 L8.90922774,35.4545455 L6,35.4545455 L6,23.4545455 L8.90922774,23.4545455 Z M30,24.5454545 L30,33.2727273 L21.2727273,33.2727273 L21.2727273,24.5454545 L30,24.5454545 Z M50.7272727,26.7272727 L50.7272727,32.1818182 L47.6725549,32.1818182 L47.6725549,29.454353 L44.618268,29.454353 L44.618268,32.1818182 L41.5635502,32.1818182 L41.5635502,29.454353 L38.5088323,29.454353 L38.5088323,32.1818182 L35.4545455,32.1818182 L35.4545455,26.7272727 L50.7272727,26.7272727 Z M27.0907723,27.4542718 L24.181955,27.4542718 L24.181955,30.363089 L27.0907723,30.363089 L27.0907723,27.4542718 Z M63.0907723,24.3270141 L60.1815445,24.3270141 L60.1815445,27.381732 L63.0907723,27.381732 L63.0907723,24.3270141 Z M8.90895407,6 L8.90895407,18.2180094 L14.7272727,18.2180094 L14.7272727,21.2727273 L6,21.2727273 L6,6 L8.90895407,6 Z M42,6 L42,21.2727273 L36.1816813,21.2727273 L36.1816813,18.2180094 L39.0906354,18.2180094 L39.0906354,15.1637226 L33.2727273,15.1637226 L33.2727273,6 L42,6 Z M50.7272727,12.5454545 L50.7272727,21.2727273 L47.4545455,21.2727273 L47.4545455,12.5454545 L50.7272727,12.5454545 Z M26.7272727,6 L26.7272727,14.7272727 L18,14.7272727 L18,6 L26.7272727,6 Z M66,6 L66,14.7272727 L63.0907723,14.7272727 L63.0907723,8.90881724 L60.1815445,8.90881724 L60.1815445,14.7272727 L57.2727273,14.7272727 L57.2727273,6 L66,6 Z M39.0906354,9.05428684 L36.1816813,9.05428684 L36.1816813,12.1090047 L39.0906354,12.1090047 L39.0906354,9.05428684 Z M23.818045,8.90881724 L20.9092277,8.90881724 L20.9092277,11.818045 L23.818045,11.818045 L23.818045,8.90881724 Z M50.7272727,6 L50.7272727,9.27272727 L47.4545455,9.27272727 L47.4545455,6 L50.7272727,6 Z" id="logo-dark"></path>
            </g>
        </g>
    </g>
</svg>