<svg xmlns="http://www.w3.org/2000/svg" viewBox="0 0 67.94 90.02"><defs><style>.cls-1{fill:#c4c4c4;stroke:#adadad;stroke-width:2px;}.cls-1,.cls-2{stroke-miterlimit:10;}.cls-2{fill:#fff;stroke:#969696;stroke-width:0.5px;}</style></defs><title>資產 5</title><g id="圖層_2" data-name="圖層 2"><g id="圖層_1-2" data-name="圖層 1"><path class="cls-1" d="M34,1C15.22,1,.38,16.82,1,35.59,1.75,56.7,16.17,57.93,27.57,79.12a89.32,89.32,0,0,1,3.76,8.13,2.85,2.85,0,0,0,5.27,0,86.77,86.77,0,0,1,3.77-8.13C51.76,57.93,66.19,56.7,66.92,35.59,67.56,16.82,52.71,1,34,1Z"/><path class="cls-2" d="M47.51,24.27a7.88,7.88,0,0,0-11.13,0l-2.51,2.51-2.52-2.51A7.87,7.87,0,0,0,20.23,35.4L33.83,49l0,0,0,0,13.6-13.6A7.88,7.88,0,0,0,47.51,24.27Z"/></g></g></svg>